<svg xmlns="http://www.w3.org/2000/svg" viewBox="0 0 256.19 128.9"><defs><style>.cls-1,.cls-15,.cls-16,.cls-2,.cls-21{fill:#fff;}.cls-1{opacity:0.5;}.cls-16,.cls-2{font-size:8.96px;font-family:Roboto-LightItalic, Roboto LightItalic;font-weight:300;font-style:italic;}.cls-2{letter-spacing:-0.07em;}.cls-3{letter-spacing:0.02em;}.cls-4{letter-spacing:0.02em;}.cls-5{letter-spacing:0em;}.cls-6{letter-spacing:-0.01em;}.cls-7{letter-spacing:-0.01em;}.cls-8{letter-spacing:0.03em;}.cls-9{letter-spacing:0em;}.cls-10{letter-spacing:0.02em;}.cls-11{letter-spacing:0em;}.cls-12{letter-spacing:-0.01em;}.cls-13{letter-spacing:0.01em;}.cls-14{fill:none;stroke:#fff;stroke-miterlimit:10;stroke-width:0.75px;}.cls-16{letter-spacing:-0.02em;}.cls-17{letter-spacing:0em;}.cls-18{letter-spacing:0em;}.cls-19{letter-spacing:0em;}.cls-20{letter-spacing:0em;}.cls-21{opacity:0.3;}</style></defs><title>资源 3</title><g id="图层_2" data-name="图层 2"><g id="图层_2-2" data-name="图层 2"><circle class="cls-1" cx="23.63" cy="35.82" r="23.63"/><circle class="cls-1" cx="23.63" cy="35.82" r="8.66"/><circle class="cls-1" cx="23.63" cy="35.82" r="15.73"/><text class="cls-2" transform="translate(57.08 114.13) scale(0.98 1)">T<tspan class="cls-3" x="3.83" y="0">o</tspan><tspan class="cls-4" x="8.89" y="0">-</tspan><tspan class="cls-5" x="11.81" y="0">empl</tspan><tspan class="cls-6" x="31.03" y="0">o</tspan><tspan class="cls-7" x="35.9" y="0">y</tspan><tspan class="cls-5" x="40.04" y="0">ers</tspan></text><text class="cls-2" transform="translate(57.96 80.14) scale(0.98 1)">T<tspan class="cls-3" x="3.83" y="0">o</tspan><tspan class="cls-5" x="8.89" y="0">-supe</tspan><tspan class="cls-8" x="29.77" y="0">r</tspan><tspan class="cls-5" x="32.93" y="0">visors</tspan></text><text class="cls-2" transform="translate(57.96 23.97) scale(0.98 1)">T<tspan class="cls-3" x="3.83" y="0">o</tspan><tspan class="cls-4" x="8.89" y="0">-</tspan><tspan class="cls-9" x="11.81" y="0">c</tspan><tspan class="cls-10" x="15.78" y="0">o</tspan><tspan class="cls-11" x="20.85" y="0">-</tspan><tspan class="cls-12" x="23.57" y="0">w</tspan><tspan class="cls-5" x="30.08" y="0">o</tspan><tspan class="cls-13" x="35.01" y="0">r</tspan><tspan class="cls-5" x="37.99" y="0">kers</tspan></text><polyline class="cls-14" points="71.61 116.89 38.77 116.89 26.79 56.37"/><circle class="cls-15" cx="26.72" cy="56.43" r="1.2"/><polyline class="cls-14" points="86.39 84.2 40.66 84.2 32.49 43.5"/><circle class="cls-15" cx="32.43" cy="43.57" r="1.2"/><polyline class="cls-14" points="90.41 12.2 42.69 12.2 25.51 35.74"/><circle class="cls-15" cx="25.45" cy="35.81" r="1.2"/><text class="cls-16" transform="translate(173.53 116.7) scale(0.98 1)">F<tspan class="cls-12" x="4.14" y="0">r</tspan><tspan class="cls-17" x="6.99" y="0">o</tspan><tspan class="cls-18" x="11.92" y="0">n</tspan><tspan class="cls-19" x="16.87" y="0">t</tspan><tspan class="cls-4" x="19.8" y="0">-</tspan><tspan class="cls-5" x="22.72" y="0">end </tspan><tspan class="cls-20" x="39.18" y="0">D</tspan><tspan class="cls-5" x="45.19" y="0">e</tspan><tspan class="cls-12" x="49.69" y="0">v</tspan><tspan class="cls-5" x="53.93" y="0">eloper</tspan></text><circle class="cls-15" cx="212.32" cy="3.8" r="3.8"/><circle class="cls-21" cx="192.69" cy="9.4" r="3.8"/><circle class="cls-21" cx="178.49" cy="24.07" r="3.8"/><circle class="cls-21" cx="173.53" cy="43.88" r="3.8"/><circle class="cls-21" cx="179.14" cy="63.51" r="3.8"/><circle class="cls-21" cx="193.81" cy="77.7" r="3.8"/><circle class="cls-21" cx="213.61" cy="82.66" r="3.8"/><circle class="cls-21" cx="233.24" cy="77.06" r="3.8"/><circle class="cls-21" cx="247.44" cy="62.39" r="3.8"/><circle class="cls-21" cx="252.4" cy="42.58" r="3.8"/><circle class="cls-21" cx="246.79" cy="22.95" r="3.8"/><circle class="cls-21" cx="232.12" cy="8.76" r="3.8"/></g></g></svg>