<svg xmlns="http://www.w3.org/2000/svg" viewBox="0 0 180.02 179.95"><defs><style>.cls-1{fill:#231815;}</style></defs><title>close-black</title><g id="图层_2" data-name="图层 2"><g id="图层_1-2" data-name="图层 1"><path class="cls-1" d="M104,90l73.3-73.31a9.6,9.6,0,0,0,0-13.5l-.4-.39a9.58,9.58,0,0,0-13.5,0L90.05,76.17,16.75,2.78a9.58,9.58,0,0,0-13.5,0l-.4.39a9.42,9.42,0,0,0,0,13.5L76.15,90l-73.3,73.3a9.6,9.6,0,0,0,0,13.5l.4.39a9.6,9.6,0,0,0,13.5,0l73.3-73.3,73.3,73.3a9.6,9.6,0,0,0,13.5,0l.4-.39a9.6,9.6,0,0,0,0-13.5Z"/></g></g></svg>