<svg xmlns="http://www.w3.org/2000/svg" viewBox="0 0 291.19 48.28"><defs><style>.cls-1{fill:none;stroke:#fff;stroke-miterlimit:10;stroke-width:0.5px;}.cls-2,.cls-6,.cls-9{font-size:10px;font-family:Roboto-LightItalic, Roboto;font-weight:300;font-style:italic;}.cls-2,.cls-5,.cls-6,.cls-8,.cls-9{fill:#fff;}.cls-2,.cls-7{letter-spacing:0em;}.cls-3{letter-spacing:-0.03em;}.cls-4{letter-spacing:0em;}.cls-6{letter-spacing:-0.01em;}.cls-8{opacity:0.5;}.cls-9{letter-spacing:-0.05em;}.cls-10{letter-spacing:-0.01em;}.cls-11{letter-spacing:-0.01em;}.cls-12{letter-spacing:0.01em;}.cls-13{letter-spacing:-0.01em;}</style></defs><title>detail-legend_2</title><g id="图层_2" data-name="图层 2"><g id="图层_2-2" data-name="图层 2"><line class="cls-1" x1="166.32" x2="166.32" y2="47.81"/><line class="cls-1" x1="63.85" y1="0.47" x2="63.85" y2="48.28"/><text class="cls-2" transform="translate(95.41 27) scale(0.98 1)">30 <tspan class="cls-3" x="13.55" y="0">Y</tspan><tspan class="cls-4" x="19.37" y="0">ears old</tspan></text><text class="cls-2" transform="translate(95.41 9.44) scale(0.98 1)">20 <tspan class="cls-3" x="13.55" y="0">Y</tspan><tspan class="cls-4" x="19.37" y="0">ears old</tspan></text><text class="cls-2" transform="translate(95.41 44.46) scale(0.98 1)">40 <tspan class="cls-3" x="13.55" y="0">Y</tspan><tspan class="cls-4" x="19.37" y="0">ears old</tspan></text><circle class="cls-5" cx="83.21" cy="5.77" r="2.13"/><circle class="cls-5" cx="83.21" cy="23.9" r="3.48"/><circle class="cls-5" cx="83.21" cy="41.33" r="4.41"/><text class="cls-2" transform="translate(14.88 27) scale(0.98 1)">Male</text><text class="cls-6" transform="translate(14.88 9.44) scale(0.98 1)">F<tspan class="cls-7" x="5.42" y="0">emale</tspan></text><text class="cls-2" transform="translate(14.88 44.46) scale(0.98 1)">Others</text><circle class="cls-5" cx="4.25" cy="5.77" r="3.74"/><rect class="cls-5" x="1.24" y="20.9" width="6.01" height="6.01" transform="translate(18.15 4) rotate(45)"/><polygon class="cls-5" points="4.25 38.19 6.06 41.33 7.87 44.46 4.25 44.46 0.63 44.46 2.44 41.33 4.25 38.19"/><circle class="cls-8" cx="195.06" cy="23.9" r="16.01"/><circle class="cls-8" cx="195.06" cy="23.9" r="5.87"/><circle class="cls-8" cx="195.06" cy="23.9" r="10.65"/><text class="cls-9" transform="translate(225.7 44.46) scale(0.98 1)">T<tspan class="cls-7" x="5.5" y="0">o-empl</tspan><tspan class="cls-10" x="37.17" y="0">o</tspan><tspan class="cls-11" x="42.68" y="0">y</tspan><tspan class="cls-4" x="47.52" y="0">ers</tspan></text><text class="cls-9" transform="translate(225.7 27) scale(0.98 1)">T<tspan class="cls-7" x="5.5" y="0">o-supe</tspan><tspan class="cls-12" x="36.7" y="0">r</tspan><tspan class="cls-4" x="40.21" y="0">visors</tspan></text><text class="cls-9" transform="translate(225.7 9.44) scale(0.98 1)">T<tspan class="cls-7" x="5.5" y="0">o-co-wor</tspan><tspan class="cls-13" x="46.81" y="0">k</tspan><tspan class="cls-4" x="51.63" y="0">ers</tspan></text><polyline class="cls-1" points="224.19 39.63 210.91 39.63 206.06 34.21"/><ellipse class="cls-5" cx="206.04" cy="34.22" rx="0.49" ry="0.11"/><polyline class="cls-1" points="224.19 24.38 208.74 24.38 205.98 24.38"/><path class="cls-5" d="M206.36,24.37h0Z"/><polyline class="cls-1" points="224.19 5.77 205.08 5.77 198.2 18.02"/><ellipse class="cls-5" cx="198.17" cy="18.06" rx="0.48" ry="0.62"/></g></g></svg>